PathFileType	4	(X/Y/Z)	path1_07_0-560.trc
DataRate	CameraRate	NumFrames	NumMarkers	Units	OrigDataRate	OrigDataStartFrame	OrigNumFrames
30	30	7	22	m	30	280	560
Frame#	Time	Hip			RHip			RKnee			RAnkle			RBigToe			RSmallToe			RHeel			LHip			LKnee			LAnkle			LBigToe			LSmallToe			LHeel			Neck			Head			Nose			RShoulder			RElbow			RWrist			LShoulder			LElbow			LWrist		
		X1	Y1	Z1	X2	Y2	Z2	X3	Y3	Z3	X4	Y4	Z4	X5	Y5	Z5	X6	Y6	Z6	X7	Y7	Z7	X8	Y8	Z8	X9	Y9	Z9	X10	Y10	Z10	X11	Y11	Z11	X12	Y12	Z12	X13	Y13	Z13	X14	Y14	Z14	X15	Y15	Z15	X16	Y16	Z16	X17	Y17	Z17	X18	Y18	Z18	X19	Y19	Z19	X20	Y20	Z20	X21	Y21	Z21	X22	Y22	Z22
281	9.366666666666667	2.7099781745826013	0.8322171943819667	0.885765244205508	2.717515680528212	0.794381422298325	0.8119774126057233	2.689212921035459	0.47308539606576544	0.7860148201819772	2.768632317835693	0.09910588921990592	0.8160672387577494	2.581288393273791	0.027582597240343412	0.78823256470495	2.6084680643071296	0.022469685674162274	0.722536765991516	2.8171848603678318	0.022754136381260517	0.8033220492324231	2.710644396264038	0.7918035756768302	0.974134961761866	2.702306175930694	0.45414933511631783	0.9722935002824927	2.7441583750916214	0.10834424229850279	0.9723626386994546	2.593565257058775	0.017947962262824788	1.0064042565149136	2.6092346514952354	0.034685759376179306	1.0579065518783075	2.791702592168222	0.03873017001782805	0.9653942722731127	2.6462471374757883	1.4537280783105238	0.885197962855072	2.605413650958647	1.6887489338753807	0.9071544714181714	2.5275895900559395	1.603171812021706	0.8497679595232305	2.698808716369209	1.3437824753031613	0.6915305599760689	2.7149247051984964	1.082693822742433	0.671807496592136	2.6976358783644807	0.8516274920614431	0.6732262931234608	2.687140061992136	1.345006918605717	1.0448083614943757	2.7543863697743274	1.0614329325842449	1.0788796371600224	2.7509697762437897	0.8366533542812696	1.0730101766088813
282	9.4	2.710126164532124	0.8321554827242397	0.8861011985550012	2.717847124942048	0.7953248485669294	0.8122270118259621	2.689244039649389	0.4732028583674757	0.7858914659686663	2.768812208719206	0.0986395569802488	0.8159417626265087	2.5816757472748573	0.027995769604670828	0.7885427988975259	2.6089047101796274	0.02236745914751464	0.7229440801929494	2.817382675969102	0.023386467739141895	0.8026351601266366	2.7095348039273484	0.7927556130334162	0.9746051413982926	2.7012092926183366	0.4542531567399958	0.9726167707322629	2.7438826597942096	0.1079802032768852	0.9721973079995964	2.5910094506262364	0.017937133765457594	1.0055957241380653	2.608502167254261	0.0349868659494476	1.0578601405317545	2.7919698969112092	0.03850000237123742	0.9650052493996694	2.6436982697663245	1.4518859622133924	0.8834797481290712	2.6045445823654063	1.6896296384652556	0.906714608260155	2.5276055659142656	1.603152991675198	0.8500132521507302	2.6993508444797483	1.3431939228776728	0.6909420080219328	2.7150131562921094	1.0824040298680644	0.6716790336342933	2.697256075142522	0.8513091426394962	0.6733185439731598	2.681105785056318	1.3448917118245758	1.0498478931450346	2.7544488906252678	1.0614965707886062	1.079016164210558	2.750785660411287	0.8364648533913213	1.0732699597416555
283	9.433333333333334	2.7103405613963165	0.832056628558947	0.8864110378848584	2.7180811189028216	0.7961188530001876	0.8122222432729701	2.689329931314111	0.4732017950741621	0.7857636531594989	2.7686482182390675	0.09823032814160847	0.8154403524386428	2.5821434315108927	0.028169136419001914	0.7888090771708944	2.6091622512823283	0.02199805443678303	0.7232214706679929	2.8178399813319603	0.02380211970078977	0.801750087782608	2.7085302290889754	0.7934641320853222	0.9748279299847827	2.7004036378971783	0.45428446393588917	0.9728331445980272	2.74361333356458	0.10761380866850873	0.9720355394366859	2.5893400287032846	0.017593360770662238	1.0048926090980315	2.607958134305065	0.035127509537037443	1.0578269339534299	2.7924077496936626	0.03820029686241095	0.9646327913914517	2.641739793929388	1.4505051301725456	0.8822274128705823	2.6072277730036086	1.6915391711241632	0.9060137514637591	2.527534621889504	1.603069423723939	0.850120778367559	2.698544309472697	1.3432159829791634	0.6906579639932787	2.7151575157183907	1.0821679353707159	0.671694847459381	2.6969067010651564	0.8510977418238503	0.6734563075546688	2.676952069366701	1.344766915269193	1.0533838641765767	2.7543966538826083	1.061790176142397	1.0792795980993704	2.7506018103610446	0.8363389167912127	1.073538470565328
284	9.466666666666669	2.7105646356524167	0.8319583289896278	0.8867058292227273	2.717966194883629	0.7968004707938602	0.8119982159465322	2.6893769386420603	0.4731336571990417	0.7856835822210101	2.7679635301902774	0.09797849011467158	0.8145716115566751	2.5829967369826017	0.027931199929870774	0.7892658147454875	2.6097074241568046	0.02126983924457948	0.723426210845242	2.8184491066325226	0.02384464860003868	0.801023633352437	2.707817687425661	0.7939738933596034	0.974780488686207	2.699979544404572	0.45429566579036035	0.9729071579856264	2.7433295982543946	0.10732278405759518	0.9719472853068899	2.5887500028967003	0.017082539097920877	1.0044254208922625	2.6077299732540404	0.03507601991924422	1.0578582048985454	2.7927797306088165	0.03792394636400847	0.9643035753944574	2.6405171415323667	1.4496749544720935	0.8815304101898332	2.611275862705671	1.6940608207919876	0.9023263116590733	2.5274500931962356	1.6028354999340755	0.8502172904089162	2.697464231425078	1.3435292952031899	0.6906259432275023	2.715322695391375	1.0820630834483587	0.6718390370639591	2.6966255494455753	0.8510628891783348	0.673586004736692	2.675270738912423	1.3448169125664466	1.054887178118939	2.754430833012077	1.061464449880524	1.0787685531410842	2.7504489256033233	0.8363029255769735	1.073768489970737
285	9.5	2.7107123219056866	0.8318939970716943	0.8869816291070799	2.7173500607915075	0.797462906098541	0.8116505523678297	2.689347599426846	0.47309570915836857	0.7857057391718589	2.766573670314922	0.09799041053422781	0.8132324079161317	2.5844407915451177	0.02712075859653094	0.7901648624835126	2.6111170585480994	0.02014100870962562	0.7237229541313399	2.8189779245321587	0.023474763196764236	0.8008627363991064	2.7074732037678633	0.7944054535412248	0.9744905971134307	2.6998441337774746	0.45435035315042305	0.9728751606768142	2.7429831633335113	0.10718256182042894	0.9719685737091026	2.5891594516429652	0.016536123075700553	1.0042177243014572	2.607803064416759	0.03483827208780072	1.0579165857710038	2.792867075254108	0.037716103343300104	0.9640509613513885	2.6398611141722244	1.4492744717290766	0.8812687578985955	2.614279550944974	1.6966716033837028	0.8933401560496154	2.5274044364469197	1.602404987482924	0.850398797003909	2.696935078169636	1.343940910471946	0.6910352874526456	2.715465578514848	1.0821109825602337	0.6720565385648842	2.6964172679872345	0.8512218805982843	0.67366563149253	2.675778239248704	1.345123981025692	1.0544721394538559	2.754683002947407	1.0599917368848355	1.0769592012227478	2.750380667981046	0.8363693933296927	1.073905471857086
286	9.533333333333331	2.7107096235576282	0.8318820022424843	0.8872095656273384	2.716295895103909	0.7980785255791398	0.8112935474939037	2.689232287869058	0.4731847193230574	0.7858680413988436	2.7643719340462436	0.09845670003022303	0.8112601670592703	2.5863026928740838	0.02570702400686338	0.791520813739385	2.613573324766439	0.018661365326179877	0.7242927577843432	2.8190770377161716	0.022882872501865176	0.8015322841400614	2.7075043569843453	0.7947616773485177	0.9740536166509008	2.6998959916338063	0.4544937265736062	0.9728075039026213	2.7426943824019134	0.1072275274359177	0.9720788275293798	2.5904790386986547	0.016026834728755747	1.0042370589887113	2.608144920096907	0.034430992566613514	1.0579506250267532	2.792720043961663	0.03756506222331563	0.9639265319434346	2.639536942515912	1.44912925993016	0.8812698632672485	2.615165178030709	1.6988812542910299	0.8793099913216637	2.5273597767568887	1.6018446334686642	0.8506248916421303	2.6968239623629	1.3447377834442154	0.6925140039090585	2.7155445306629704	1.0822861825343941	0.6722803753426994	2.696285392014028	0.8515495032139444	0.6736555013873856	2.6780182487935242	1.3456364521241575	1.0523525876192967	2.755145162886274	1.0574980170517372	1.0740571240511685	2.750418933985512	0.8365408741665138	1.073903362194601
287	9.566666666666666	2.71053144399951	0.83192377525356	0.8873543529549944	2.71508727875206	0.7984525195698026	0.8110423172181809	2.6889819003914517	0.47347219242168603	0.7861581156534205	2.7614855332111956	0.09953257472551517	0.8086618158972216	2.5880478111730483	0.023898215004356554	0.7930431028424625	2.616720854977654	0.017046888755863975	0.7252825064344245	2.8183632492381117	0.022441449694582526	0.8030891947392333	2.7078889326443236	0.7948800907784767	0.973638091407748	2.7001052086593775	0.45476674378521387	0.9727758538543264	2.7427030373731074	0.10745746276711247	0.9722299457627654	2.592626091676462	0.0156268750142854	1.004449136646039	2.608768579395127	0.03389872449014602	1.0579731410856352	2.7925768934560384	0.037448971976187004	0.9639699385740906	2.6393500004509822	1.4491094098833346	0.8813903825243548	2.6141972480923115	1.700195423035207	0.8637184124619948	2.5272137251080156	1.601352373349573	0.8507446339799886	2.6970368951681802	1.3462985518141841	0.6957638848709725	2.715527786784598	1.0825220231498827	0.6724523909279936	2.696234488614823	0.852006224719182	0.6735420794162902	2.6809063605289736	1.3461300481782827	1.049472641824515	2.7556451698242856	1.0548543212153865	1.0710863210401171	2.7505231725016377	0.8368226904465639	1.0737375951055792
